<svg xmlns="http://www.w3.org/2000/svg" viewBox="0 0 100 15.24"><title>CUTT-LOGO-LANDSCAPE-RGB-MAIN-POSITIVE</title><path d="M14,10.13c-.54,3.08-2.79,5.11-6.82,5.11C2.32,15.24,0,12,0,7.73S2.3,0,7.35,0c4.31,0,6.28,2.51,6.57,5.05H9.65a2.23,2.23,0,0,0-2.4-2C5.15,3,4.44,5,4.44,7.58c0,2.33.59,4.63,2.85,4.63a2.32,2.32,0,0,0,2.38-2.08Z" fill="#22281b"/><path d="M19.67.27v9c0,2.1,1,2.82,2.34,2.82s2.24-.86,2.24-2.82v-9h4.32v8.6c0,4.89-2.88,6.37-6.63,6.37s-6.58-1.57-6.58-6.35V.27Z" fill="#22281b"/><path d="M34.23,3.46H30V.27H42.7V3.46H38.54V15H34.23Z" fill="#22281b"/><path d="M44.17.27v3.2h4.21V12l4.31-4.31V3.47h4.16V.27Z" fill="#22281b"/><path d="M62.33,12.23c0,.65.25,1.3,1,1.3a.75.75,0,0,0,.85-.58H66.5a3,3,0,0,1-3.25,2.19,3.07,3.07,0,0,1-3.33-3.33,3.11,3.11,0,0,1,3.37-3.43,3,3,0,0,1,3.26,3.3,4.79,4.79,0,0,1,0,.55ZM64.15,11c0-.6-.18-1.11-.87-1.11s-.88.47-.92,1.11Z" fill="#ea5933"/><path d="M69.48,8.53c.39,1.57.79,3.47.91,4.44h0c.17-1.21.62-2.94,1-4.44h2.38L71.66,15H69L66.9,8.53Z" fill="#ea5933"/><path d="M76.46,12.23c0,.65.25,1.3,1,1.3a.76.76,0,0,0,.85-.58h2.35a3,3,0,0,1-3.24,2.19,3.07,3.07,0,0,1-3.33-3.33,3.11,3.11,0,0,1,3.37-3.43,3,3,0,0,1,3.26,3.3,4.79,4.79,0,0,1,0,.55ZM78.28,11c0-.6-.18-1.11-.87-1.11s-.89.47-.93,1.11Z" fill="#ea5933"/><path d="M81.77,10.2c0-.55,0-1.16,0-1.67H84.1c0,.17.06.52.07.71A2.07,2.07,0,0,1,86,8.38c1.3,0,2.11.87,2.11,2.45V15H85.72V11.1c0-.62-.18-1-.74-1s-.81.27-.81,1.17V15h-2.4Z" fill="#ea5933"/><path d="M88.85,8.53h.92V6.86h2.38V8.53h1.13v1.62H92.15v2.77c0,.39.12.55.63.55a2.06,2.06,0,0,0,.33,0v1.48a5,5,0,0,1-1.4.15c-1.52,0-1.95-.74-1.95-2v-3h-.91Z" fill="#ea5933"/><path d="M96.06,13a.88.88,0,0,0,1,.64c.47,0,.68-.15.68-.44s-.29-.43-1.14-.63C94.35,12.07,94,11.33,94,10.42s.66-2,2.86-2,2.86,1.07,2.93,2H97.67c0-.23-.19-.55-.84-.55-.43,0-.59.18-.59.4s.21.36,1.26.59C99.56,11.26,100,12,100,13s-.84,2.15-3,2.15-3-1-3.12-2.15Z" fill="#ea5933"/><polygon points="66.2 0.27 51.5 14.97 49.85 14.97 64.55 0.27 66.2 0.27" fill="#ea5933"/></svg>